# xmcd CD database file
#
# Track frame offsets:
#	150
#	16792
#	29444
#	50023
#	65935
#	87085
#	104387
#	121994
#	136173
#	152543
#	170425
#	193222
#
# Disc length: 2625 seconds
#
# Revision: 0
# Processed by: cddbd v1.5.1PL2 Copyright (c) Steve Scherf et al.
# Submitted via: CDex 1.51
#
DISCID=9f0a3f0c
DTITLE=SURFACE - Fate
DYEAR=1900
DGENRE=Pop
TTITLE0=ゴーイング my 上へ
TTITLE1=なあなあ -Fate mix-
TTITLE2=switch
TTITLE3=でてくるなよ
TTITLE4=君の声で 君のすべてで...
TTITLE5=縁
TTITLE6=愛じゃない
TTITLE7=偶然
TTITLE8=まぁいいや
TTITLE9=Tell me
TTITLE10=たまり場
TTITLE11=ヌイテル？
EXTD=
EXTT0=
EXTT1=
EXTT2=
EXTT3=
EXTT4=
EXTT5=
EXTT6=
EXTT7=
EXTT8=
EXTT9=
EXTT10=
EXTT11=
PLAYORDER=
